# xmcd CD database file
#
# Track frame offsets:
#	150
#	18214
#	41158
#	61344
#	82322
#	104671
#	125717
#	147655
#	167630
#	187681
#	207988
#	227425
#
# Disc length: 3288 seconds
#
# Revision: 0
# Processed by: cddbd v1.5.1PL0 Copyright (c) Steve Scherf et al.
# Submitted via: CDex 1.50beta10
#
DISCID=aa0cd60c
DTITLE=Various Artist - La Musica Que Te Pone A Bailar
DYEAR=1900
DGENRE=Salsa
TTITLE0=Tito Gomez y Tito Rojas - Quien Nos Iba A Decir?
TTITLE1=Grupo Niche - Buscare La Forma
TTITLE2=Pedro Jesus - No Me Digas Que No
TTITLE3=F2F - Espejismo
TTITLE4=Los Hermanos Moreno - Tu Miradita
TTITLE5=Puerto Rican Power - Se Te Fue La Mano
TTITLE6=Miosotis - Soltera Y Libre
TTITLE7=Harvey - Cuentale Tu
TTITLE8=Luisito Carrion - La Chica Mas Popular
TTITLE9=Leo Vanelli y Luis Damon - Ni Tu, Ni Yo
TTITLE10=Cesar Aviles - Quien Como Ella?
TTITLE11=Carlos Oliva y los Sobrinos del Juez - Tu Carrito
EXTD=
EXTT0=
EXTT1=
EXTT2=
EXTT3=
EXTT4=
EXTT5=
EXTT6=
EXTT7=
EXTT8=
EXTT9=
EXTT10=
EXTT11=
PLAYORDER=
